PathFileType	4	(X/Y/Z)	./resultDataOpenSim/trcMotMarkerGrf/sub09/qtm-04-07.trc
DataRate	CameraRate	NumFrames	NumMarkers	Units	OrigDataRate	OrigDataStartFrame	OrigNumFrames
250.000000	250.000000	6	24	m	250.000000	1	488
Frame#	Time	L.Toe.Tip			R.Toe.Tip			L.Ankle.Lat			R.Ankle.Lat			L.Ankle.Med			R.Ankle.Med			L.Heel			R.Heel			L.Knee.Lat			R.Knee.Lat			L.Knee.Med			R.Knee.Med			L.Thigh.Upper			R.Thigh.Upper			L.ASIS			R.ASIS			V.Sacral			L.Acromium			R.Acromium			C7			L.Elbow			R.Elbow			L.Wrist.Lat			R.Wrist.Lat
		X1	Y1	Z1	X2	Y2	Z2	X3	Y3	Z3	X4	Y4	Z4	X5	Y5	Z5	X6	Y6	Z6	X7	Y7	Z7	X8	Y8	Z8	X9	Y9	Z9	X10	Y10	Z10	X11	Y11	Z11	X12	Y12	Z12	X13	Y13	Z13	X14	Y14	Z14	X15	Y15	Z15	X16	Y16	Z16	X17	Y17	Z17	X18	Y18	Z18	X19	Y19	Z19	X20	Y20	Z20	X21	Y21	Z21	X22	Y22	Z22	X23	Y23	Z23	X24	Y24	Z24

1	0	-1.5290104	0.037223435	-0.018094233	-0.9690856	0.092989978	0.084586868	-1.6766995	0.07939822	-0.052138573	-1.1173252	0.071777425	0.11363515	-1.6519149	0.097327168	0.040631635	-1.1106571	0.11224272	0.023403993	NaN	NaN	NaN	-1.1684149	0.032078736	0.057666564	-1.5343114	0.47185587	-0.1201146	-1.192745	0.5246603	0.15981575	-1.5310749	0.47332014	0.0060279733	-1.1939557	0.50499027	0.032559841	-1.4284899	0.87892498	-0.16991584	-1.3975617	0.87674724	0.19915038	-1.3230147	0.95191216	-0.11809366	-1.3146134	0.95897267	0.12225003	-1.4805432	1.0184393	0.012778746	-1.2897893	1.4102702	-0.15713941	-1.3243941	1.4174557	0.1695482	-1.3686912	1.4664707	0.0014753749	-1.3790249	1.0435371	-0.23959975	-1.5057697	1.1119954	0.24072549	-1.1202265	0.95604853	-0.20794141	-1.4545739	0.84774918	0.28045368
2	0.004	-1.528939	0.037184342	-0.018127013	-0.95288868	0.097000058	0.084492812	-1.6765363	0.080116608	-0.052090668	-1.1015306	0.072002356	0.1130668	-1.6515195	0.097872079	0.040609966	-1.09555	0.11267167	0.022802866	NaN	NaN	NaN	-1.1507876	0.031521103	0.0566767	-1.5316492	0.47173094	-0.1201385	-1.1874498	0.52296106	0.15978048	-1.5281256	0.47324101	0.0060714687	-1.1878643	0.50352577	0.032308966	-1.4230032	0.87789786	-0.1697764	-1.3913991	0.87536733	0.19930623	-1.3172219	0.95067595	-0.11805903	-1.3085912	0.95760127	0.12231013	-1.4745689	1.0169291	0.012972478	-1.2841302	1.4090673	-0.15700832	-1.319052	1.4161195	0.16978997	-1.363217	1.4653158	0.0017774634	-1.3723185	1.0420676	-0.23943359	-1.4999506	1.1103248	0.2403062	-1.1129736	0.95619824	-0.20750571	-1.4487871	0.84634834	0.28043836
3	0.008	-1.5288703	0.037145413	-0.018167587	-0.93697135	0.10108794	0.0843476	-1.6763361	0.080837275	-0.052085178	-1.0858223	0.07237616	0.11252522	-1.6510392	0.098465432	0.040554136	-1.0805529	0.11326314	0.022264524	NaN	NaN	NaN	-1.1335879	0.030966669	0.055895106	-1.5288525	0.4716006	-0.12019693	-1.1820723	0.52125937	0.15969144	-1.5252196	0.47311392	0.0061030677	-1.1818094	0.50206695	0.032045309	-1.417487	0.87686604	-0.16960776	-1.3852727	0.87392713	0.19943867	-1.3114031	0.9494251	-0.11803024	-1.3025065	0.95626339	0.12238019	-1.4686718	1.015428	0.013037182	-1.2784493	1.4078785	-0.15687273	-1.313622	1.4147834	0.16998943	-1.3578423	1.4641655	0.0019780328	-1.3656257	1.0405902	-0.23928028	-1.494129	1.1087052	0.23992774	-1.1057504	0.95631391	-0.20710027	-1.4430302	0.84493552	0.28040565
4	0.012	-1.5288003	0.03710836	-0.018216256	-0.92156537	0.10525511	0.08421454	-1.6760543	0.081591705	-0.052150143	-1.0702706	0.072971647	0.11202854	-1.6504252	0.09911853	0.04043856	-1.065761	0.11405652	0.021785622	NaN	NaN	NaN	-1.1170578	0.030446459	0.055435245	-1.5258529	0.47144926	-0.12029718	-1.1765521	0.51955811	0.15954014	-1.5222358	0.47294114	0.0061041609	-1.1757996	0.5006072	0.031758858	-1.4119197	0.87581936	-0.16938856	-1.3790955	0.8724172	0.19954761	-1.3055459	0.94816006	-0.11801654	-1.2963204	0.954959	0.12245471	-1.4628801	1.0139565	0.012921702	-1.2727272	1.4067007	-0.15672383	-1.3080702	1.4134425	0.17015456	-1.3525194	1.4630218	0.0021057117	-1.3589444	1.0391123	-0.23913608	-1.4883297	1.1071539	0.23966122	-1.0985667	0.95636889	-0.20673085	-1.4372907	0.84349221	0.28034751
5	0.016	-1.5287243	0.037075085	-0.018267391	-0.90680838	0.109411	0.084172876	-1.6756589	0.082402485	-0.052292958	-1.0549739	0.073773006	0.11157034	-1.649693	0.09980091	0.040259958	-1.0512789	0.11499784	0.021330787	NaN	NaN	NaN	-1.1011524	0.030052509	0.055234007	-1.5226405	0.47125517	-0.12042789	-1.1708367	0.51787914	0.15936421	-1.5190222	0.47274554	0.0060705654	-1.1698447	0.49913547	0.031456226	-1.4063095	0.87474956	-0.16912307	-1.3727613	0.8708655	0.19964439	-1.2996669	0.94688987	-0.11803459	-1.2900287	0.95365849	0.12251844	-1.4571384	1.0125242	0.01272664	-1.2669653	1.4055175	-0.15655672	-1.3024166	1.4120936	0.17031045	-1.3471109	1.4618786	0.0022766964	-1.3522804	1.0376498	-0.23898682	-1.4826334	1.1056351	0.2396199	-1.091432	0.95634279	-0.20638636	-1.4315823	0.84199219	0.2802632
6	0.02	-1.5286424	0.037044911	-0.018315739	-0.89270012	0.11345927	0.084216633	-1.6751439	0.083259633	-0.052507925	-1.0400562	0.074706218	0.11111514	-1.6488905	0.1004784	0.040031854	-1.0371809	0.11602493	0.020873399	NaN	NaN	NaN	-1.0856799	0.02985552	0.055164535	-1.5192091	0.47100478	-0.12058126	-1.1648883	0.51625397	0.15920216	-1.5155452	0.47252575	0.0060208013	-1.1639483	0.4976424	0.031152728	-1.4006737	0.87365623	-0.16883613	-1.3662321	0.8692949	0.19973705	-1.2937734	0.94561286	-0.11809382	-1.2836332	0.95234232	0.12256212	-1.4513216	1.011118	0.012643259	-1.2611733	1.4043116	-0.15637865	-1.2966955	1.4107331	0.17046854	-1.341551	1.4607152	0.0025174039	-1.3456388	1.0362079	-0.23881323	-1.4771107	1.1040775	0.23987431	-1.0843585	0.95622122	-0.20606023	-1.4259124	0.84042001	0.28015188
